<?xml version="1.0" standalone="no"?>
<!DOCTYPE svg PUBLIC "-//W3C//DTD SVG 20010904//EN"
 "http://www.w3.org/TR/2001/REC-SVG-20010904/DTD/svg10.dtd">
<svg version="1.0" xmlns="http://www.w3.org/2000/svg"
 width="512.000000pt" height="512.000000pt" viewBox="0 0 512.000000 512.000000"
 preserveAspectRatio="xMidYMid meet">
<metadata>
Created by potrace 1.11, written by Peter Selinger 2001-2013
</metadata>
<g transform="translate(0.000000,512.000000) scale(0.100000,-0.100000)"
fill="#000000" stroke="none">
<path d="M0 2560 l0 -2560 2560 0 2560 0 0 2560 0 2560 -2560 0 -2560 0 0
-2560z m2850 2003 c650 -92 1216 -508 1506 -1108 479 -988 62 -2183 -928
-2660 -993 -479 -2180 -66 -2662 925 -267 548 -268 1186 -2 1735 105 216 226
386 396 555 159 158 322 273 533 375 358 175 753 236 1157 178z"/>
<path d="M2336 3824 c-449 -81 -833 -419 -970 -852 -57 -180 -73 -415 -41
-598 80 -455 416 -840 853 -978 180 -57 415 -73 598 -41 455 80 840 416 978
853 57 180 73 415 41 598 -80 455 -416 840 -853 978 -46 14 -122 33 -169 41
-107 19 -331 18 -437 -1z m326 -745 c377 -79 526 -545 264 -826 -197 -212
-513 -217 -717 -14 -192 193 -199 490 -15 688 122 131 297 188 468 152z"/>
</g>
</svg>
